G04*
G04 #@! TF.GenerationSoftware,Altium Limited,Altium Designer,21.7.2 (23)*
G04*
G04 Layer_Color=8421504*
%FSLAX44Y44*%
%MOMM*%
G71*
G04*
G04 #@! TF.SameCoordinates,9EF1011C-F085-4F00-A033-941BB5F8363B*
G04*
G04*
G04 #@! TF.FilePolarity,Positive*
G04*
G01*
G75*
%ADD14R,1.4000X2.1000*%
%ADD15R,1.7500X1.0000*%
%ADD16R,1.2000X1.4500*%
%ADD17R,1.4000X0.9000*%
D14*
X777000Y-789000D02*
D03*
Y-880000D02*
D03*
X732000Y-789000D02*
D03*
Y-880000D02*
D03*
X648500Y-864500D02*
D03*
Y-955500D02*
D03*
X603500Y-864500D02*
D03*
Y-955500D02*
D03*
X185250Y-867250D02*
D03*
Y-958250D02*
D03*
X140250Y-867250D02*
D03*
Y-958250D02*
D03*
X112250Y-789750D02*
D03*
Y-880750D02*
D03*
X67250Y-789750D02*
D03*
Y-880750D02*
D03*
X258500Y-789250D02*
D03*
Y-880250D02*
D03*
X213500Y-789250D02*
D03*
Y-880250D02*
D03*
X369750Y-686750D02*
D03*
Y-777750D02*
D03*
X324750Y-686750D02*
D03*
Y-777750D02*
D03*
X521750Y-688500D02*
D03*
Y-779500D02*
D03*
X476750Y-688500D02*
D03*
Y-779500D02*
D03*
X186000Y-715250D02*
D03*
Y-806250D02*
D03*
X141000Y-715250D02*
D03*
Y-806250D02*
D03*
D15*
X67730Y-702480D02*
D03*
Y-672480D02*
D03*
D16*
X802000Y-172750D02*
D03*
X819000D02*
D03*
D17*
X40750Y-671500D02*
D03*
Y-652500D02*
D03*
M02*
