G04*
G04 #@! TF.GenerationSoftware,Altium Limited,Altium Designer,21.7.2 (23)*
G04*
G04 Layer_Color=128*
%FSLAX44Y44*%
%MOMM*%
G71*
G04*
G04 #@! TF.SameCoordinates,9EF1011C-F085-4F00-A033-941BB5F8363B*
G04*
G04*
G04 #@! TF.FilePolarity,Positive*
G04*
G01*
G75*
%ADD51C,0.0508*%
D51*
X207970Y-124822D02*
X220970D01*
X214470Y-131322D02*
Y-118322D01*
X237976Y-125246D02*
X250976D01*
X244476Y-131746D02*
Y-118746D01*
X313000Y-125246D02*
X326000D01*
X319500Y-131746D02*
Y-118746D01*
X348000Y-125246D02*
X361000D01*
X354500Y-131746D02*
Y-118746D01*
X479459Y-287930D02*
X492459D01*
X485959Y-294430D02*
Y-281430D01*
X460987Y-139332D02*
X486387D01*
X473687Y-152032D02*
Y-126632D01*
X586877Y-139332D02*
X612277D01*
X599577Y-152032D02*
Y-126632D01*
X454059Y-287930D02*
X467059D01*
X460559Y-294430D02*
Y-281430D01*
X504859Y-287930D02*
X517859D01*
X511359Y-294430D02*
Y-281430D01*
X530259Y-287930D02*
X543259D01*
X536759Y-294430D02*
Y-281430D01*
X555659Y-287930D02*
X568659D01*
X562159Y-294430D02*
Y-281430D01*
X581059Y-287930D02*
X594059D01*
X587559Y-294430D02*
Y-281430D01*
X606459Y-287930D02*
X619459D01*
X612959Y-294430D02*
Y-281430D01*
X513251Y-144968D02*
X526251D01*
X519751Y-151468D02*
Y-138468D01*
X548243Y-144968D02*
X561243D01*
X554743Y-151468D02*
Y-138468D01*
X63899Y-120850D02*
X73899D01*
X68899Y-125850D02*
Y-115850D01*
X63899Y-146250D02*
X73899D01*
X68899Y-151250D02*
Y-141250D01*
X63899Y-171650D02*
X73899D01*
X68899Y-176650D02*
Y-166650D01*
X63899Y-197050D02*
X73899D01*
X68899Y-202050D02*
Y-192050D01*
X63899Y-222450D02*
X73899D01*
X68899Y-227450D02*
Y-217450D01*
X63899Y-247850D02*
X73899D01*
X68899Y-252850D02*
Y-242850D01*
X63899Y-273250D02*
X73899D01*
X68899Y-278250D02*
Y-268250D01*
X63899Y-298650D02*
X73899D01*
X68899Y-303650D02*
Y-293650D01*
X63899Y-324050D02*
X73899D01*
X68899Y-329050D02*
Y-319050D01*
X63899Y-349450D02*
X73899D01*
X68899Y-354450D02*
Y-344450D01*
X63899Y-374850D02*
X73899D01*
X68899Y-379850D02*
Y-369850D01*
X685999Y-197050D02*
X695999D01*
X690999Y-202050D02*
Y-192050D01*
X685999Y-222450D02*
X695999D01*
X690999Y-227450D02*
Y-217450D01*
X685999Y-247850D02*
X695999D01*
X690999Y-252850D02*
Y-242850D01*
X685999Y-273250D02*
X695999D01*
X690999Y-278250D02*
Y-268250D01*
X685999Y-298650D02*
X695999D01*
X690999Y-303650D02*
Y-293650D01*
X218150Y-646550D02*
X228150D01*
X223150Y-651550D02*
Y-641550D01*
X243550Y-646550D02*
X253550D01*
X248550Y-651550D02*
Y-641550D01*
X446750Y-646550D02*
X456750D01*
X451750Y-651550D02*
Y-641550D01*
X472150Y-646550D02*
X482150D01*
X477150Y-651550D02*
Y-641550D01*
X497550Y-646550D02*
X507550D01*
X502550Y-651550D02*
Y-641550D01*
X522950Y-646550D02*
X532950D01*
X527950Y-651550D02*
Y-641550D01*
X548350Y-646550D02*
X558350D01*
X553350Y-651550D02*
Y-641550D01*
X573750Y-646550D02*
X583750D01*
X578750Y-651550D02*
Y-641550D01*
X599150Y-646550D02*
X609150D01*
X604150Y-651550D02*
Y-641550D01*
X624550Y-646550D02*
X634550D01*
X629550Y-651550D02*
Y-641550D01*
X319750Y-646550D02*
X329750D01*
X324750Y-651550D02*
Y-641550D01*
X345150Y-646550D02*
X355150D01*
X350150Y-651550D02*
Y-641550D01*
X370550Y-646550D02*
X380550D01*
X375550Y-651550D02*
Y-641550D01*
X395950Y-646550D02*
X405950D01*
X400950Y-651550D02*
Y-641550D01*
X421350Y-646550D02*
X431350D01*
X426350Y-651550D02*
Y-641550D01*
X167350Y-646550D02*
X177350D01*
X172350Y-651550D02*
Y-641550D01*
X192750Y-646550D02*
X202750D01*
X197750Y-651550D02*
Y-641550D01*
X268950Y-646550D02*
X278950D01*
X273950Y-651550D02*
Y-641550D01*
X294350Y-646550D02*
X304350D01*
X299350Y-651550D02*
Y-641550D01*
X649950Y-646550D02*
X659950D01*
X654950Y-651550D02*
Y-641550D01*
X599150Y-468750D02*
X609150D01*
X604150Y-473750D02*
Y-463750D01*
X522950Y-468750D02*
X532950D01*
X527950Y-473750D02*
Y-463750D01*
X548350Y-468750D02*
X558350D01*
X553350Y-473750D02*
Y-463750D01*
X573750Y-468750D02*
X583750D01*
X578750Y-473750D02*
Y-463750D01*
X624550Y-468750D02*
X634550D01*
X629550Y-473750D02*
Y-463750D01*
X497550Y-468750D02*
X507550D01*
X502550Y-473750D02*
Y-463750D01*
X472150Y-468750D02*
X482150D01*
X477150Y-473750D02*
Y-463750D01*
X446750Y-468750D02*
X456750D01*
X451750Y-473750D02*
Y-463750D01*
X649950Y-468750D02*
X659950D01*
X654950Y-473750D02*
Y-463750D01*
X421350Y-468750D02*
X431350D01*
X426350Y-473750D02*
Y-463750D01*
X395950Y-468750D02*
X405950D01*
X400950Y-473750D02*
Y-463750D01*
X192750Y-468750D02*
X202750D01*
X197750Y-473750D02*
Y-463750D01*
X218150Y-468750D02*
X228150D01*
X223150Y-473750D02*
Y-463750D01*
X243550Y-468750D02*
X253550D01*
X248550Y-473750D02*
Y-463750D01*
X268950Y-468750D02*
X278950D01*
X273950Y-473750D02*
Y-463750D01*
X294350Y-468750D02*
X304350D01*
X299350Y-473750D02*
Y-463750D01*
X319750Y-468750D02*
X329750D01*
X324750Y-473750D02*
Y-463750D01*
X345150Y-468750D02*
X355150D01*
X350150Y-473750D02*
Y-463750D01*
X370550Y-468750D02*
X380550D01*
X375550Y-473750D02*
Y-463750D01*
X167350Y-468750D02*
X177350D01*
X172350Y-473750D02*
Y-463750D01*
X34250Y-586500D02*
X42250D01*
X38250Y-590500D02*
Y-582500D01*
X34250Y-566500D02*
X42250D01*
X38250Y-570500D02*
Y-562500D01*
X34250Y-546500D02*
X42250D01*
X38250Y-550500D02*
Y-542500D01*
X29950Y-607500D02*
X46550D01*
X38250Y-615800D02*
Y-599200D01*
X29950Y-525500D02*
X46550D01*
X38250Y-533800D02*
Y-517200D01*
X775000Y-952000D02*
X815000D01*
X795000Y-972000D02*
Y-932000D01*
X25000Y-951980D02*
X65000D01*
X45000Y-971980D02*
Y-931980D01*
X774750Y-45000D02*
X814750D01*
X794750Y-65000D02*
Y-25000D01*
X24500Y-45000D02*
X64500D01*
X44500Y-65000D02*
Y-25000D01*
X478444Y-215500D02*
X485556D01*
X482000Y-219056D02*
Y-211944D01*
X76069Y-618000D02*
X83181D01*
X79625Y-621556D02*
Y-614444D01*
X130944Y-334750D02*
X138056D01*
X134500Y-338306D02*
Y-331194D01*
X291194Y-278750D02*
X298306D01*
X294750Y-282306D02*
Y-275194D01*
X417704Y-348490D02*
X424816D01*
X421260Y-352046D02*
Y-344934D01*
X240944Y-175000D02*
X248056D01*
X244500Y-178556D02*
Y-171444D01*
X317194Y-175500D02*
X324306D01*
X320750Y-179056D02*
Y-171944D01*
X248750Y-303500D02*
X258750D01*
X253750Y-308500D02*
Y-298500D01*
X223944Y-811750D02*
X231056D01*
X227500Y-815306D02*
Y-808194D01*
X431694Y-778250D02*
X438806D01*
X435250Y-781806D02*
Y-774694D01*
X331194Y-815750D02*
X338306D01*
X334750Y-819306D02*
Y-812194D01*
X158194Y-931000D02*
X165306D01*
X161750Y-934556D02*
Y-927444D01*
X611194Y-922250D02*
X618306D01*
X614750Y-925806D02*
Y-918694D01*
X728694Y-744500D02*
X735806D01*
X732250Y-748056D02*
Y-740944D01*
M02*
