G04*
G04 #@! TF.GenerationSoftware,Altium Limited,Altium Designer,21.7.2 (23)*
G04*
G04 Layer_Physical_Order=2*
G04 Layer_Color=16711680*
%FSLAX44Y44*%
%MOMM*%
G71*
G04*
G04 #@! TF.SameCoordinates,9EF1011C-F085-4F00-A033-941BB5F8363B*
G04*
G04*
G04 #@! TF.FilePolarity,Positive*
G04*
G01*
G75*
%ADD15R,1.7500X1.0000*%
%ADD33C,0.8500*%
%ADD34R,2.0000X2.0000*%
%ADD35C,2.1000*%
%ADD36C,1.5240*%
%ADD37R,2.2000X2.2000*%
%ADD38C,2.2000*%
%ADD39C,2.0000*%
%ADD40R,1.3000X1.3000*%
%ADD41C,1.3000*%
%ADD42C,2.4900*%
%ADD43C,1.2700*%
%ADD44C,1.5000*%
%ADD45R,1.4250X0.6000*%
%ADD46R,1.5500X2.2000*%
%ADD47R,1.0000X1.7500*%
D15*
X421750Y-275500D02*
D03*
Y-305500D02*
D03*
D33*
X475863Y-210500D02*
X480863Y-215500D01*
X338250Y-210500D02*
X475863D01*
X480863Y-215500D02*
X482000D01*
X388750Y-305000D02*
Y-301250D01*
X421260Y-348490D02*
Y-337510D01*
X388000Y-300500D02*
X388750Y-301250D01*
Y-305000D02*
X421260Y-337510D01*
X417250Y-304750D02*
X418000Y-305500D01*
X350348Y-277050D02*
X396550D01*
X417250Y-304750D02*
Y-297750D01*
X396550Y-277050D02*
X417250Y-297750D01*
X418000Y-305500D02*
X421750D01*
X422141Y-305109D01*
X436141D01*
X450928Y-290322D01*
X458167D01*
X460559Y-287930D01*
X79625Y-618000D02*
X81750D01*
X77500D02*
X79625D01*
X81750D02*
X119250Y-580500D01*
Y-350000D01*
X134500Y-334750D01*
X296450Y-277050D02*
X326130D01*
X294750Y-278750D02*
X296450Y-277050D01*
X273979Y-264500D02*
X323255D01*
X269000Y-291521D02*
Y-269479D01*
X273979Y-296500D02*
X309250D01*
X269000Y-291521D02*
X273979Y-296500D01*
X269000Y-269479D02*
X273979Y-264500D01*
X310000Y-318250D02*
Y-297250D01*
X309250Y-296500D02*
X310000Y-297250D01*
X460559Y-287930D02*
Y-269191D01*
X467250Y-262500D01*
X623000D01*
X315250Y-323500D02*
X351750D01*
X358000Y-317250D01*
Y-300500D01*
X340000Y-301000D02*
X340589Y-300411D01*
Y-286808D01*
X350348Y-277050D01*
X310000Y-318250D02*
X315250Y-323500D01*
X420000Y-251500D02*
Y-238853D01*
X420875Y-274750D02*
Y-252375D01*
X421625Y-275500D02*
X421750D01*
X420000Y-251500D02*
X420875Y-252375D01*
Y-274750D02*
X421625Y-275500D01*
X407897Y-226750D02*
X420000Y-238853D01*
X370500Y-226750D02*
X407897D01*
X345600Y-251650D02*
X370500Y-226750D01*
X326130Y-251650D02*
X345600D01*
X326130Y-222620D02*
X338250Y-210500D01*
X326130Y-238950D02*
Y-222620D01*
X614000Y-180250D02*
X649000Y-215250D01*
X359500Y-180250D02*
X614000D01*
X354500Y-175250D02*
X359500Y-180250D01*
X649000Y-411750D02*
Y-215250D01*
X354500Y-175250D02*
Y-125246D01*
X208720Y-119072D02*
X214470Y-124822D01*
X196000Y-98000D02*
X208720Y-110720D01*
X53250Y-98000D02*
X196000D01*
X208720Y-119072D02*
Y-110720D01*
X38250Y-545890D02*
Y-525500D01*
Y-566500D02*
X49250D01*
X597250Y-79000D02*
X668250Y-150000D01*
Y-430050D02*
Y-150000D01*
X39250Y-79000D02*
X597250D01*
X16750Y-101500D02*
X39250Y-79000D01*
X16750Y-510500D02*
Y-101500D01*
Y-510500D02*
X31750Y-525500D01*
X37250Y-114000D02*
X53250Y-98000D01*
X37250Y-415500D02*
Y-114000D01*
Y-415500D02*
X61250Y-439500D01*
X49250Y-566500D02*
X61250Y-554500D01*
Y-439500D01*
X635000Y-347750D02*
Y-274500D01*
X623000Y-262500D02*
X635000Y-274500D01*
X555136Y-427613D02*
X635000Y-347750D01*
X605662Y-455089D02*
X649000Y-411750D01*
X629550Y-468750D02*
X668250Y-430050D01*
X604150Y-468750D02*
X605662Y-467239D01*
Y-455089D01*
X555136Y-466964D02*
Y-427613D01*
X502550Y-468750D02*
Y-443200D01*
X612959Y-332791D02*
Y-287930D01*
X502550Y-443200D02*
X612959Y-332791D01*
X562159Y-312841D02*
Y-287930D01*
X426350Y-448650D02*
X562159Y-312841D01*
X426350Y-468750D02*
Y-448650D01*
X451750Y-468750D02*
X453950Y-466550D01*
Y-456300D02*
X587559Y-322691D01*
Y-287930D01*
X453950Y-466550D02*
Y-456300D01*
X253750Y-303500D02*
X375550Y-425300D01*
Y-463000D02*
Y-425300D01*
X553350Y-468750D02*
X555136Y-466964D01*
X68899Y-222450D02*
X248550Y-402101D01*
Y-463000D02*
Y-402101D01*
X326000Y-461750D02*
Y-403351D01*
X68899Y-146250D02*
X326000Y-403351D01*
X299350Y-463000D02*
Y-402101D01*
X68899Y-171650D02*
X299350Y-402101D01*
X273950Y-463000D02*
Y-402101D01*
X68899Y-197050D02*
X273950Y-402101D01*
X229500Y-813750D02*
X247000Y-831250D01*
X474250D01*
X502550Y-802950D02*
Y-646550D01*
X474250Y-831250D02*
X502550Y-802950D01*
X423750Y-770000D02*
X433250Y-779500D01*
X423750Y-770000D02*
Y-669350D01*
X400950Y-646550D02*
X423750Y-669350D01*
X334750Y-815750D02*
X376250D01*
X397000Y-795000D01*
Y-668000D01*
X375550Y-646550D02*
X397000Y-668000D01*
X229500Y-958500D02*
X500750D01*
X553350Y-905900D02*
Y-646550D01*
X500750Y-958500D02*
X553350Y-905900D01*
X161750Y-931000D02*
X202000D01*
X229500Y-958500D01*
X614750Y-922250D02*
X615886D01*
X620886Y-917250D02*
X790250D01*
X805750Y-901750D01*
X615886Y-922250D02*
X620886Y-917250D01*
X753000Y-602500D02*
X805750Y-655250D01*
Y-901750D02*
Y-655250D01*
X443750Y-602500D02*
X753000D01*
X686250Y-622000D02*
X732250Y-668000D01*
X461500Y-622000D02*
X686250D01*
X732250Y-744500D02*
Y-668000D01*
Y-744500D02*
X732750Y-745000D01*
X426350Y-619900D02*
X443750Y-602500D01*
X426350Y-646550D02*
Y-619900D01*
X451750Y-646550D02*
X453950Y-644350D01*
Y-629550D02*
X461500Y-622000D01*
X453950Y-644350D02*
Y-629550D01*
X324750Y-463000D02*
X326000Y-461750D01*
X790000Y-557000D02*
X820000Y-527000D01*
X300000Y-557000D02*
X790000D01*
X248950Y-608050D02*
X300000Y-557000D01*
X760000Y-537000D02*
X779500Y-517500D01*
X748200Y-222450D02*
X779500Y-253750D01*
Y-517500D02*
Y-253750D01*
X690999Y-222450D02*
X748200D01*
X690999Y-197050D02*
X759550D01*
X820000Y-257500D01*
Y-527000D02*
Y-257500D01*
X172350Y-594650D02*
X230000Y-537000D01*
X760000D01*
X248950Y-640400D02*
Y-608050D01*
X172350Y-640800D02*
Y-594650D01*
X248550Y-640800D02*
X248950Y-640400D01*
D34*
X214470Y-124822D02*
D03*
X244476Y-125246D02*
D03*
X319500D02*
D03*
X354500D02*
D03*
X612959Y-287930D02*
D03*
X654950Y-646550D02*
D03*
D35*
X485959Y-287930D02*
D03*
X460559D02*
D03*
X511359D02*
D03*
X536759D02*
D03*
X562159D02*
D03*
X587559D02*
D03*
X519751Y-144968D02*
D03*
X554743D02*
D03*
D36*
X473687Y-139332D02*
D03*
X599577D02*
D03*
X795000Y-952000D02*
D03*
X45000Y-951980D02*
D03*
X794750Y-45000D02*
D03*
X44500Y-45000D02*
D03*
D37*
X68899Y-120850D02*
D03*
D38*
Y-146250D02*
D03*
Y-171650D02*
D03*
Y-197050D02*
D03*
Y-222450D02*
D03*
Y-247850D02*
D03*
Y-273250D02*
D03*
Y-298650D02*
D03*
Y-324050D02*
D03*
Y-349450D02*
D03*
Y-374850D02*
D03*
X690999Y-197050D02*
D03*
Y-222450D02*
D03*
Y-247850D02*
D03*
Y-273250D02*
D03*
Y-298650D02*
D03*
D39*
X223150Y-646550D02*
D03*
X248550D02*
D03*
X451750D02*
D03*
X477150D02*
D03*
X502550D02*
D03*
X527950D02*
D03*
X553350D02*
D03*
X578750D02*
D03*
X604150D02*
D03*
X629550D02*
D03*
X324750D02*
D03*
X350150D02*
D03*
X375550D02*
D03*
X400950D02*
D03*
X426350D02*
D03*
X172350D02*
D03*
X197750D02*
D03*
X273950D02*
D03*
X299350D02*
D03*
X604150Y-468750D02*
D03*
X527950D02*
D03*
X553350D02*
D03*
X578750D02*
D03*
X629550D02*
D03*
X502550D02*
D03*
X477150D02*
D03*
X451750D02*
D03*
X654950D02*
D03*
X426350D02*
D03*
X400950D02*
D03*
X197750D02*
D03*
X223150D02*
D03*
X248550D02*
D03*
X273950D02*
D03*
X299350D02*
D03*
X324750D02*
D03*
X350150D02*
D03*
X375550D02*
D03*
X172350D02*
D03*
D40*
X38250Y-586500D02*
D03*
D41*
Y-566500D02*
D03*
Y-546500D02*
D03*
D42*
Y-607500D02*
D03*
Y-525500D02*
D03*
D43*
X482000Y-215500D02*
D03*
X79625Y-618000D02*
D03*
X134500Y-334750D02*
D03*
X294750Y-278750D02*
D03*
X421260Y-348490D02*
D03*
X244500Y-175000D02*
D03*
X320750Y-175500D02*
D03*
X227500Y-811750D02*
D03*
X435250Y-778250D02*
D03*
X334750Y-815750D02*
D03*
X161750Y-931000D02*
D03*
X614750Y-922250D02*
D03*
X732250Y-744500D02*
D03*
D44*
X253750Y-303500D02*
D03*
D45*
X326130Y-277050D02*
D03*
Y-264350D02*
D03*
Y-251650D02*
D03*
Y-238950D02*
D03*
X390370D02*
D03*
Y-251650D02*
D03*
Y-264350D02*
D03*
Y-277050D02*
D03*
D46*
X420000Y-251500D02*
D03*
Y-210500D02*
D03*
D47*
X388000Y-300500D02*
D03*
X358000D02*
D03*
X310000Y-301000D02*
D03*
X340000D02*
D03*
M02*
