G04*
G04 #@! TF.GenerationSoftware,Altium Limited,Altium Designer,21.7.2 (23)*
G04*
G04 Layer_Color=8388736*
%FSLAX44Y44*%
%MOMM*%
G71*
G04*
G04 #@! TF.SameCoordinates,9EF1011C-F085-4F00-A033-941BB5F8363B*
G04*
G04*
G04 #@! TF.FilePolarity,Negative*
G04*
G01*
G75*
%ADD18R,1.6032X2.3032*%
%ADD19R,1.9532X1.2032*%
%ADD20R,1.4032X1.6532*%
%ADD21R,1.6032X1.1032*%
%ADD22R,2.2032X2.2032*%
%ADD23C,2.3032*%
%ADD24C,1.7272*%
%ADD25R,2.4032X2.4032*%
%ADD26C,2.4032*%
%ADD27C,2.2032*%
%ADD28R,1.5032X1.5032*%
%ADD29C,1.5032*%
%ADD30C,2.6932*%
%ADD31C,1.4732*%
%ADD32C,1.7032*%
D18*
X777000Y-789000D02*
D03*
Y-880000D02*
D03*
X732000Y-789000D02*
D03*
Y-880000D02*
D03*
X648500Y-864500D02*
D03*
Y-955500D02*
D03*
X603500Y-864500D02*
D03*
Y-955500D02*
D03*
X185250Y-867250D02*
D03*
Y-958250D02*
D03*
X140250Y-867250D02*
D03*
Y-958250D02*
D03*
X112250Y-789750D02*
D03*
Y-880750D02*
D03*
X67250Y-789750D02*
D03*
Y-880750D02*
D03*
X258500Y-789250D02*
D03*
Y-880250D02*
D03*
X213500Y-789250D02*
D03*
Y-880250D02*
D03*
X369750Y-686750D02*
D03*
Y-777750D02*
D03*
X324750Y-686750D02*
D03*
Y-777750D02*
D03*
X521750Y-688500D02*
D03*
Y-779500D02*
D03*
X476750Y-688500D02*
D03*
Y-779500D02*
D03*
X186000Y-715250D02*
D03*
Y-806250D02*
D03*
X141000Y-715250D02*
D03*
Y-806250D02*
D03*
D19*
X67730Y-702480D02*
D03*
Y-672480D02*
D03*
D20*
X802000Y-172750D02*
D03*
X819000D02*
D03*
D21*
X40750Y-671500D02*
D03*
Y-652500D02*
D03*
D22*
X214470Y-124822D02*
D03*
X244476Y-125246D02*
D03*
X319500D02*
D03*
X354500D02*
D03*
X612959Y-287930D02*
D03*
X654950Y-646550D02*
D03*
D23*
X485959Y-287930D02*
D03*
X460559D02*
D03*
X511359D02*
D03*
X536759D02*
D03*
X562159D02*
D03*
X587559D02*
D03*
X519751Y-144968D02*
D03*
X554743D02*
D03*
D24*
X473687Y-139332D02*
D03*
X599577D02*
D03*
X795000Y-952000D02*
D03*
X45000Y-951980D02*
D03*
X794750Y-45000D02*
D03*
X44500Y-45000D02*
D03*
D25*
X68899Y-120850D02*
D03*
D26*
Y-146250D02*
D03*
Y-171650D02*
D03*
Y-197050D02*
D03*
Y-222450D02*
D03*
Y-247850D02*
D03*
Y-273250D02*
D03*
Y-298650D02*
D03*
Y-324050D02*
D03*
Y-349450D02*
D03*
Y-374850D02*
D03*
X690999Y-197050D02*
D03*
Y-222450D02*
D03*
Y-247850D02*
D03*
Y-273250D02*
D03*
Y-298650D02*
D03*
D27*
X223150Y-646550D02*
D03*
X248550D02*
D03*
X451750D02*
D03*
X477150D02*
D03*
X502550D02*
D03*
X527950D02*
D03*
X553350D02*
D03*
X578750D02*
D03*
X604150D02*
D03*
X629550D02*
D03*
X324750D02*
D03*
X350150D02*
D03*
X375550D02*
D03*
X400950D02*
D03*
X426350D02*
D03*
X172350D02*
D03*
X197750D02*
D03*
X273950D02*
D03*
X299350D02*
D03*
X604150Y-468750D02*
D03*
X527950D02*
D03*
X553350D02*
D03*
X578750D02*
D03*
X629550D02*
D03*
X502550D02*
D03*
X477150D02*
D03*
X451750D02*
D03*
X654950D02*
D03*
X426350D02*
D03*
X400950D02*
D03*
X197750D02*
D03*
X223150D02*
D03*
X248550D02*
D03*
X273950D02*
D03*
X299350D02*
D03*
X324750D02*
D03*
X350150D02*
D03*
X375550D02*
D03*
X172350D02*
D03*
D28*
X38250Y-586500D02*
D03*
D29*
Y-566500D02*
D03*
Y-546500D02*
D03*
D30*
Y-607500D02*
D03*
Y-525500D02*
D03*
D31*
X482000Y-215500D02*
D03*
X79625Y-618000D02*
D03*
X134500Y-334750D02*
D03*
X294750Y-278750D02*
D03*
X421260Y-348490D02*
D03*
X244500Y-175000D02*
D03*
X320750Y-175500D02*
D03*
X227500Y-811750D02*
D03*
X435250Y-778250D02*
D03*
X334750Y-815750D02*
D03*
X161750Y-931000D02*
D03*
X614750Y-922250D02*
D03*
X732250Y-744500D02*
D03*
D32*
X253750Y-303500D02*
D03*
M02*
