G04*
G04 #@! TF.GenerationSoftware,Altium Limited,Altium Designer,21.7.2 (23)*
G04*
G04 Layer_Color=65535*
%FSLAX44Y44*%
%MOMM*%
G71*
G04*
G04 #@! TF.SameCoordinates,9EF1011C-F085-4F00-A033-941BB5F8363B*
G04*
G04*
G04 #@! TF.FilePolarity,Positive*
G04*
G01*
G75*
%ADD10C,0.1000*%
%ADD11C,0.2000*%
%ADD12C,1.0000*%
%ADD13C,0.2540*%
D10*
X732500Y-895500D02*
G03*
X731500Y-895500I-500J0D01*
G01*
D02*
G03*
X732500Y-895500I500J0D01*
G01*
X604000Y-971000D02*
G03*
X603000Y-971000I-500J0D01*
G01*
D02*
G03*
X604000Y-971000I500J0D01*
G01*
X140750Y-973750D02*
G03*
X139750Y-973750I-500J0D01*
G01*
D02*
G03*
X140750Y-973750I500J0D01*
G01*
X67750Y-896250D02*
G03*
X66750Y-896250I-500J0D01*
G01*
D02*
G03*
X67750Y-896250I500J0D01*
G01*
X214000Y-895750D02*
G03*
X213000Y-895750I-500J0D01*
G01*
D02*
G03*
X214000Y-895750I500J0D01*
G01*
X325250Y-793250D02*
G03*
X324250Y-793250I-500J0D01*
G01*
D02*
G03*
X325250Y-793250I500J0D01*
G01*
X477250Y-795000D02*
G03*
X476250Y-795000I-500J0D01*
G01*
D02*
G03*
X477250Y-795000I500J0D01*
G01*
X141500Y-821750D02*
G03*
X140500Y-821750I-500J0D01*
G01*
D02*
G03*
X141500Y-821750I500J0D01*
G01*
D11*
X744500Y-804500D02*
X764500D01*
X744500Y-864500D02*
X764500D01*
X784500Y-859500D02*
Y-809500D01*
X724500Y-859500D02*
Y-809500D01*
X616000Y-880000D02*
X636000D01*
X616000Y-940000D02*
X636000D01*
X656000Y-935000D02*
Y-885000D01*
X596000Y-935000D02*
Y-885000D01*
X152750Y-882750D02*
X172750D01*
X152750Y-942750D02*
X172750D01*
X192750Y-937750D02*
Y-887750D01*
X132750Y-937750D02*
Y-887750D01*
X79750Y-805250D02*
X99750D01*
X79750Y-865250D02*
X99750D01*
X119750Y-860250D02*
Y-810250D01*
X59750Y-860250D02*
Y-810250D01*
X226000Y-804750D02*
X246000D01*
X226000Y-864750D02*
X246000D01*
X266000Y-859750D02*
Y-809750D01*
X206000Y-859750D02*
Y-809750D01*
X337250Y-702250D02*
X357250D01*
X337250Y-762250D02*
X357250D01*
X377250Y-757250D02*
Y-707250D01*
X317250Y-757250D02*
Y-707250D01*
X489250Y-704000D02*
X509250D01*
X489250Y-764000D02*
X509250D01*
X529250Y-759000D02*
Y-709000D01*
X469250Y-759000D02*
Y-709000D01*
X153500Y-730750D02*
X173500D01*
X153500Y-790750D02*
X173500D01*
X193500Y-785750D02*
Y-735750D01*
X133500Y-785750D02*
Y-735750D01*
X60730Y-687480D02*
X74730D01*
X30250Y-679500D02*
Y-652500D01*
Y-679500D02*
X51250D01*
Y-652500D01*
D12*
X687000Y-586250D02*
Y-533250D01*
D13*
X58573Y-660848D02*
Y-645613D01*
X66191D01*
X68730Y-648152D01*
Y-653230D01*
X66191Y-655770D01*
X58573D01*
X63651D02*
X68730Y-660848D01*
X73808D02*
X78886D01*
X76347D01*
Y-645613D01*
X73808Y-648152D01*
X9132Y-682642D02*
X24367D01*
Y-672485D01*
X9132Y-657250D02*
Y-667407D01*
X24367D01*
Y-657250D01*
X16750Y-667407D02*
Y-662329D01*
X9132Y-652172D02*
X24367D01*
Y-644554D01*
X21828Y-642015D01*
X11671D01*
X9132Y-644554D01*
Y-652172D01*
X24367Y-636937D02*
Y-631859D01*
Y-634398D01*
X9132D01*
X11671Y-636937D01*
X109922Y-741882D02*
Y-754578D01*
X112461Y-757117D01*
X117539D01*
X120078Y-754578D01*
Y-741882D01*
X492632Y-806922D02*
X490093Y-804382D01*
X485015D01*
X482476Y-806922D01*
Y-809461D01*
X485015Y-812000D01*
X490093D01*
X492632Y-814539D01*
Y-817078D01*
X490093Y-819617D01*
X485015D01*
X482476Y-817078D01*
X505328Y-819617D02*
X500250D01*
X497711Y-817078D01*
Y-812000D01*
X500250Y-809461D01*
X505328D01*
X507868Y-812000D01*
Y-814539D01*
X497711D01*
X512946Y-819617D02*
X518024D01*
X515485D01*
Y-804382D01*
X512946D01*
X269363Y-701922D02*
X266824Y-699382D01*
X261745D01*
X259206Y-701922D01*
Y-704461D01*
X261745Y-707000D01*
X266824D01*
X269363Y-709539D01*
Y-712078D01*
X266824Y-714617D01*
X261745D01*
X259206Y-712078D01*
X276980Y-701922D02*
Y-704461D01*
X274441D01*
X279520D01*
X276980D01*
Y-712078D01*
X279520Y-714617D01*
X289676Y-704461D02*
X294755D01*
X297294Y-707000D01*
Y-714617D01*
X289676D01*
X287137Y-712078D01*
X289676Y-709539D01*
X297294D01*
X276922Y-843617D02*
Y-828382D01*
X284539D01*
X287078Y-830922D01*
Y-836000D01*
X284539Y-838539D01*
X276922D01*
X282000D02*
X287078Y-843617D01*
X31592Y-771385D02*
Y-786620D01*
X41749D01*
X203172Y-925882D02*
Y-941117D01*
X210789D01*
X213328Y-938578D01*
Y-928422D01*
X210789Y-925882D01*
X203172D01*
X567786Y-846061D02*
Y-861296D01*
X575404D01*
X577943Y-858757D01*
Y-856218D01*
X575404Y-853679D01*
X567786D01*
X575404D01*
X577943Y-851139D01*
Y-848600D01*
X575404Y-846061D01*
X567786D01*
X696310Y-785858D02*
Y-775701D01*
X701388Y-770623D01*
X706467Y-775701D01*
Y-785858D01*
Y-778241D01*
X696310D01*
X86687Y-40132D02*
Y-55367D01*
X96843D01*
X112078Y-42672D02*
X109539Y-40132D01*
X104461D01*
X101922Y-42672D01*
Y-52828D01*
X104461Y-55367D01*
X109539D01*
X112078Y-52828D01*
X117157Y-40132D02*
Y-55367D01*
X124774D01*
X127313Y-52828D01*
Y-42672D01*
X124774Y-40132D01*
X117157D01*
X167339Y-450118D02*
Y-434883D01*
X174956D01*
X177495Y-437422D01*
Y-442500D01*
X174956Y-445039D01*
X167339D01*
X182574Y-450118D02*
X187652D01*
X185113D01*
Y-439961D01*
X182574D01*
X205426D02*
X197809D01*
X195270Y-442500D01*
Y-447579D01*
X197809Y-450118D01*
X205426D01*
X213044D02*
X218122D01*
X220661Y-447579D01*
Y-442500D01*
X218122Y-439961D01*
X213044D01*
X210505Y-442500D01*
Y-447579D01*
X213044Y-450118D01*
M02*
