G04*
G04 #@! TF.GenerationSoftware,Altium Limited,Altium Designer,21.7.2 (23)*
G04*
G04 Layer_Physical_Order=1*
G04 Layer_Color=255*
%FSLAX44Y44*%
%MOMM*%
G71*
G04*
G04 #@! TF.SameCoordinates,9EF1011C-F085-4F00-A033-941BB5F8363B*
G04*
G04*
G04 #@! TF.FilePolarity,Positive*
G04*
G01*
G75*
%ADD14R,1.4000X2.1000*%
%ADD15R,1.7500X1.0000*%
%ADD16R,1.2000X1.4500*%
%ADD17R,1.4000X0.9000*%
%ADD33C,0.8500*%
%ADD34R,2.0000X2.0000*%
%ADD35C,2.1000*%
%ADD36C,1.5240*%
%ADD37R,2.2000X2.2000*%
%ADD38C,2.2000*%
%ADD39C,2.0000*%
%ADD40R,1.3000X1.3000*%
%ADD41C,1.3000*%
%ADD42C,2.4900*%
%ADD43C,1.2700*%
%ADD44C,1.5000*%
G36*
X813151Y-554163D02*
X787163Y-580151D01*
X620000D01*
X618228Y-580385D01*
X616576Y-581069D01*
X615157Y-582157D01*
X599307Y-598007D01*
X598219Y-599426D01*
X597535Y-601077D01*
X597301Y-602850D01*
Y-636024D01*
X596450Y-636516D01*
X594115Y-638851D01*
X592465Y-641710D01*
X592107Y-643043D01*
X590793D01*
X590435Y-641710D01*
X588784Y-638851D01*
X586450Y-636516D01*
X583590Y-634865D01*
X580401Y-634010D01*
X577099D01*
X573910Y-634865D01*
X571050Y-636516D01*
X568716Y-638851D01*
X567065Y-641710D01*
X566707Y-643043D01*
X565393D01*
X565035Y-641710D01*
X563385Y-638851D01*
X561050Y-636516D01*
X558190Y-634865D01*
X555001Y-634010D01*
X551699D01*
X548510Y-634865D01*
X545650Y-636516D01*
X543316Y-638851D01*
X541665Y-641710D01*
X541307Y-643043D01*
X539993D01*
X539635Y-641710D01*
X537985Y-638851D01*
X535650Y-636516D01*
X532790Y-634865D01*
X529601Y-634010D01*
X526299D01*
X523110Y-634865D01*
X520250Y-636516D01*
X517915Y-638851D01*
X516265Y-641710D01*
X515907Y-643043D01*
X514593D01*
X514235Y-641710D01*
X512584Y-638851D01*
X510250Y-636516D01*
X507390Y-634865D01*
X504201Y-634010D01*
X500899D01*
X497710Y-634865D01*
X494850Y-636516D01*
X492515Y-638851D01*
X490865Y-641710D01*
X490507Y-643043D01*
X489193D01*
X488835Y-641710D01*
X487184Y-638851D01*
X484850Y-636516D01*
X481990Y-634865D01*
X478801Y-634010D01*
X475499D01*
X472310Y-634865D01*
X469450Y-636516D01*
X467116Y-638851D01*
X465465Y-641710D01*
X465107Y-643043D01*
X463793D01*
X463435Y-641710D01*
X461785Y-638851D01*
X459450Y-636516D01*
X456590Y-634865D01*
X453401Y-634010D01*
X450099D01*
X446910Y-634865D01*
X444050Y-636516D01*
X441716Y-638851D01*
X440065Y-641710D01*
X439707Y-643043D01*
X438393D01*
X438035Y-641710D01*
X436385Y-638851D01*
X434050Y-636516D01*
X431190Y-634865D01*
X428001Y-634010D01*
X424699D01*
X421510Y-634865D01*
X418650Y-636516D01*
X416315Y-638851D01*
X414665Y-641710D01*
X414307Y-643043D01*
X412993D01*
X412635Y-641710D01*
X410984Y-638851D01*
X408650Y-636516D01*
X405790Y-634865D01*
X402601Y-634010D01*
X399299D01*
X396110Y-634865D01*
X393250Y-636516D01*
X390915Y-638851D01*
X389265Y-641710D01*
X388907Y-643043D01*
X387593D01*
X387235Y-641710D01*
X385584Y-638851D01*
X383250Y-636516D01*
X380390Y-634865D01*
X377201Y-634010D01*
X373899D01*
X370710Y-634865D01*
X367850Y-636516D01*
X365516Y-638851D01*
X363865Y-641710D01*
X363507Y-643043D01*
X362193D01*
X361835Y-641710D01*
X360185Y-638851D01*
X357850Y-636516D01*
X354990Y-634865D01*
X351801Y-634010D01*
X348499D01*
X345310Y-634865D01*
X342450Y-636516D01*
X340116Y-638851D01*
X338465Y-641710D01*
X338107Y-643043D01*
X336793D01*
X336435Y-641710D01*
X334785Y-638851D01*
X332450Y-636516D01*
X329590Y-634865D01*
X326401Y-634010D01*
X323099D01*
X319910Y-634865D01*
X317050Y-636516D01*
X314715Y-638851D01*
X313065Y-641710D01*
X312707Y-643043D01*
X311393D01*
X311035Y-641710D01*
X309384Y-638851D01*
X307050Y-636516D01*
X304190Y-634865D01*
X301001Y-634010D01*
X297699D01*
X294510Y-634865D01*
X291650Y-636516D01*
X289315Y-638851D01*
X287665Y-641710D01*
X287307Y-643043D01*
X285993D01*
X285635Y-641710D01*
X283985Y-638851D01*
X281650Y-636516D01*
X280799Y-636024D01*
Y-595887D01*
X312837Y-563849D01*
X750000D01*
X751773Y-563615D01*
X753424Y-562931D01*
X754843Y-561843D01*
X774843Y-541843D01*
X775931Y-540424D01*
X776615Y-538773D01*
X776849Y-537000D01*
Y-506000D01*
X813151D01*
Y-554163D01*
D02*
G37*
G36*
X763151Y-534163D02*
X747163Y-550151D01*
X310000D01*
X308228Y-550385D01*
X306576Y-551069D01*
X305157Y-552157D01*
X269107Y-588207D01*
X268019Y-589626D01*
X267335Y-591278D01*
X267101Y-593050D01*
Y-636024D01*
X266250Y-636516D01*
X263916Y-638851D01*
X262265Y-641710D01*
X261907Y-643043D01*
X260593D01*
X260235Y-641710D01*
X258584Y-638851D01*
X256250Y-636516D01*
X253390Y-634865D01*
X250201Y-634010D01*
X246899D01*
X243710Y-634865D01*
X240850Y-636516D01*
X238515Y-638851D01*
X236865Y-641710D01*
X236507Y-643043D01*
X235193D01*
X234835Y-641710D01*
X233185Y-638851D01*
X230850Y-636516D01*
X227990Y-634865D01*
X224801Y-634010D01*
X221499D01*
X218310Y-634865D01*
X215450Y-636516D01*
X213116Y-638851D01*
X211465Y-641710D01*
X211107Y-643043D01*
X209793D01*
X209435Y-641710D01*
X207785Y-638851D01*
X205450Y-636516D01*
X204599Y-636024D01*
Y-572087D01*
X242837Y-533849D01*
X730000D01*
X731773Y-533615D01*
X733424Y-532931D01*
X734843Y-531843D01*
X753843Y-512843D01*
X754931Y-511424D01*
X755615Y-509772D01*
X755849Y-508000D01*
Y-506000D01*
X763151D01*
Y-534163D01*
D02*
G37*
G36*
X836115Y-992000D02*
X3885D01*
X3885Y-506000D01*
X739655D01*
X740141Y-507173D01*
X727163Y-520151D01*
X240000D01*
X238228Y-520385D01*
X236576Y-521069D01*
X235157Y-522157D01*
X192907Y-564407D01*
X191819Y-565826D01*
X191135Y-567477D01*
X190901Y-569250D01*
Y-636024D01*
X190050Y-636516D01*
X187715Y-638851D01*
X186065Y-641710D01*
X185707Y-643043D01*
X184393D01*
X184035Y-641710D01*
X182384Y-638851D01*
X180050Y-636516D01*
X177190Y-634865D01*
X174001Y-634010D01*
X170699D01*
X167510Y-634865D01*
X164650Y-636516D01*
X162316Y-638851D01*
X160665Y-641710D01*
X159810Y-644899D01*
Y-648201D01*
X160665Y-651391D01*
X162316Y-654250D01*
X164650Y-656585D01*
X167510Y-658236D01*
X170699Y-659090D01*
X174001D01*
X177190Y-658236D01*
X180050Y-656585D01*
X182384Y-654250D01*
X184035Y-651391D01*
X184393Y-650058D01*
X185707D01*
X186065Y-651391D01*
X187715Y-654250D01*
X190050Y-656585D01*
X192910Y-658236D01*
X196099Y-659090D01*
X199401D01*
X202590Y-658236D01*
X205450Y-656585D01*
X207785Y-654250D01*
X209435Y-651391D01*
X209793Y-650058D01*
X211107D01*
X211465Y-651391D01*
X213116Y-654250D01*
X215450Y-656585D01*
X218310Y-658236D01*
X221499Y-659090D01*
X224801D01*
X227990Y-658236D01*
X230850Y-656585D01*
X233185Y-654250D01*
X234835Y-651391D01*
X235193Y-650058D01*
X236507D01*
X236865Y-651391D01*
X238515Y-654250D01*
X240850Y-656585D01*
X243710Y-658236D01*
X246899Y-659090D01*
X250201D01*
X253390Y-658236D01*
X256250Y-656585D01*
X258584Y-654250D01*
X260235Y-651391D01*
X260593Y-650058D01*
X261907D01*
X262265Y-651391D01*
X263916Y-654250D01*
X266250Y-656585D01*
X269110Y-658236D01*
X272299Y-659090D01*
X275601D01*
X278790Y-658236D01*
X281650Y-656585D01*
X283985Y-654250D01*
X285635Y-651391D01*
X285993Y-650058D01*
X287307D01*
X287665Y-651391D01*
X289315Y-654250D01*
X291650Y-656585D01*
X294510Y-658236D01*
X297699Y-659090D01*
X301001D01*
X304190Y-658236D01*
X307050Y-656585D01*
X309384Y-654250D01*
X311035Y-651391D01*
X311393Y-650058D01*
X312707D01*
X313065Y-651391D01*
X314715Y-654250D01*
X317050Y-656585D01*
X319910Y-658236D01*
X323099Y-659090D01*
X326401D01*
X329590Y-658236D01*
X332450Y-656585D01*
X334785Y-654250D01*
X336435Y-651391D01*
X336793Y-650058D01*
X338107D01*
X338465Y-651391D01*
X340116Y-654250D01*
X342450Y-656585D01*
X345310Y-658236D01*
X348499Y-659090D01*
X351801D01*
X354990Y-658236D01*
X357850Y-656585D01*
X360185Y-654250D01*
X361835Y-651391D01*
X362193Y-650058D01*
X363507D01*
X363865Y-651391D01*
X365516Y-654250D01*
X367850Y-656585D01*
X370710Y-658236D01*
X373899Y-659090D01*
X377201D01*
X380390Y-658236D01*
X383250Y-656585D01*
X385584Y-654250D01*
X387235Y-651391D01*
X387593Y-650058D01*
X388907D01*
X389265Y-651391D01*
X390915Y-654250D01*
X393250Y-656585D01*
X396110Y-658236D01*
X399299Y-659090D01*
X402601D01*
X405790Y-658236D01*
X408650Y-656585D01*
X410984Y-654250D01*
X412635Y-651391D01*
X412993Y-650058D01*
X414307D01*
X414665Y-651391D01*
X416315Y-654250D01*
X418650Y-656585D01*
X421510Y-658236D01*
X424699Y-659090D01*
X428001D01*
X431190Y-658236D01*
X434050Y-656585D01*
X436385Y-654250D01*
X438035Y-651391D01*
X438393Y-650058D01*
X439707D01*
X440065Y-651391D01*
X441716Y-654250D01*
X444050Y-656585D01*
X446910Y-658236D01*
X450099Y-659090D01*
X453401D01*
X456590Y-658236D01*
X459450Y-656585D01*
X461785Y-654250D01*
X463435Y-651391D01*
X463793Y-650058D01*
X465107D01*
X465465Y-651391D01*
X467116Y-654250D01*
X469450Y-656585D01*
X472310Y-658236D01*
X475499Y-659090D01*
X478801D01*
X481990Y-658236D01*
X484850Y-656585D01*
X487184Y-654250D01*
X488835Y-651391D01*
X489193Y-650058D01*
X490507D01*
X490865Y-651391D01*
X492515Y-654250D01*
X494850Y-656585D01*
X497710Y-658236D01*
X500899Y-659090D01*
X504201D01*
X507390Y-658236D01*
X510250Y-656585D01*
X512584Y-654250D01*
X514235Y-651391D01*
X514593Y-650058D01*
X515907D01*
X516265Y-651391D01*
X517915Y-654250D01*
X520250Y-656585D01*
X523110Y-658236D01*
X526299Y-659090D01*
X529601D01*
X530550Y-658836D01*
X542401Y-670687D01*
Y-710163D01*
X520663Y-731901D01*
X246337D01*
X194093Y-679657D01*
X192674Y-678569D01*
X191022Y-677885D01*
X189250Y-677651D01*
X117000D01*
X115227Y-677885D01*
X113576Y-678569D01*
X112157Y-679657D01*
X81157Y-710657D01*
X80069Y-712076D01*
X79385Y-713727D01*
X79151Y-715500D01*
Y-855663D01*
X67105Y-867710D01*
X57710D01*
Y-893790D01*
X76790D01*
Y-877395D01*
X90843Y-863343D01*
X91931Y-861924D01*
X92615Y-860273D01*
X92849Y-858500D01*
Y-718337D01*
X119837Y-691349D01*
X186413D01*
X196333Y-701268D01*
X195478Y-702210D01*
X194296Y-702210D01*
X176460D01*
Y-728290D01*
X195540D01*
Y-703478D01*
X195540Y-702271D01*
X196481Y-701417D01*
X238657Y-743593D01*
X240076Y-744681D01*
X241728Y-745365D01*
X241850Y-745381D01*
X241767Y-746651D01*
X171750D01*
X169977Y-746885D01*
X168326Y-747569D01*
X166907Y-748657D01*
X136157Y-779407D01*
X135069Y-780826D01*
X134385Y-782477D01*
X134151Y-784250D01*
Y-793210D01*
X131460D01*
Y-819290D01*
X150540D01*
Y-793210D01*
X147849D01*
Y-787087D01*
X174587Y-760349D01*
X535000D01*
X536772Y-760115D01*
X538424Y-759431D01*
X539843Y-758343D01*
X583593Y-714593D01*
X584681Y-713174D01*
X585365Y-711523D01*
X585599Y-709750D01*
Y-657076D01*
X586450Y-656585D01*
X588784Y-654250D01*
X590435Y-651391D01*
X590793Y-650058D01*
X592107D01*
X592465Y-651391D01*
X594115Y-654250D01*
X596450Y-656585D01*
X599310Y-658236D01*
X602499Y-659090D01*
X602880D01*
Y-646550D01*
X605420D01*
Y-659090D01*
X605801D01*
X608990Y-658236D01*
X611850Y-656585D01*
X614184Y-654250D01*
X615835Y-651391D01*
X616193Y-650058D01*
X617507D01*
X617865Y-651391D01*
X619515Y-654250D01*
X621850Y-656585D01*
X624710Y-658236D01*
X627899Y-659090D01*
X631201D01*
X634390Y-658236D01*
X637250Y-656585D01*
X639585Y-654250D01*
X640533Y-652607D01*
X642195Y-652270D01*
X642410Y-652432D01*
Y-659090D01*
X667490D01*
Y-634010D01*
X642410D01*
Y-640668D01*
X642195Y-640831D01*
X640533Y-640494D01*
X639585Y-638851D01*
X637250Y-636516D01*
X634390Y-634865D01*
X631201Y-634010D01*
X627899D01*
X624710Y-634865D01*
X621850Y-636516D01*
X619515Y-638851D01*
X617865Y-641710D01*
X617507Y-643043D01*
X616193D01*
X615835Y-641710D01*
X614184Y-638851D01*
X611850Y-636516D01*
X610999Y-636024D01*
Y-605687D01*
X622837Y-593849D01*
X790000D01*
X791773Y-593615D01*
X793424Y-592931D01*
X794843Y-591843D01*
X824843Y-561843D01*
X825931Y-560424D01*
X826615Y-558773D01*
X826849Y-557000D01*
Y-506000D01*
X836115D01*
Y-992000D01*
D02*
G37*
G36*
X567065Y-651391D02*
X568716Y-654250D01*
X571050Y-656585D01*
X571901Y-657076D01*
Y-706913D01*
X532163Y-746651D01*
X525233D01*
X525150Y-745381D01*
X525272Y-745365D01*
X526924Y-744681D01*
X528343Y-743593D01*
X554093Y-717843D01*
X555181Y-716424D01*
X555865Y-714772D01*
X556099Y-713000D01*
Y-667850D01*
X555865Y-666078D01*
X555181Y-664426D01*
X554093Y-663008D01*
X551266Y-660181D01*
X551972Y-659090D01*
X555001D01*
X558190Y-658236D01*
X561050Y-656585D01*
X563385Y-654250D01*
X565035Y-651391D01*
X565393Y-650058D01*
X566707D01*
X567065Y-651391D01*
D02*
G37*
%LPC*%
G36*
X39727Y-510510D02*
X36774D01*
X33878Y-511086D01*
X31150Y-512216D01*
X28695Y-513857D01*
X26607Y-515944D01*
X24966Y-518400D01*
X23836Y-521128D01*
X23260Y-524024D01*
Y-526976D01*
X23836Y-529872D01*
X24966Y-532600D01*
X26607Y-535056D01*
X28695Y-537144D01*
X31150Y-538784D01*
X31531Y-538942D01*
X31779Y-540187D01*
X31016Y-540949D01*
X29826Y-543011D01*
X29210Y-545310D01*
Y-547690D01*
X29826Y-549989D01*
X31016Y-552051D01*
X32700Y-553734D01*
X34761Y-554924D01*
X37060Y-555540D01*
X39441D01*
X41740Y-554924D01*
X43801Y-553734D01*
X45484Y-552051D01*
X46674Y-549989D01*
X47290Y-547690D01*
Y-545310D01*
X46674Y-543011D01*
X45484Y-540949D01*
X44722Y-540187D01*
X44970Y-538942D01*
X45351Y-538784D01*
X47806Y-537144D01*
X49894Y-535056D01*
X51534Y-532600D01*
X52664Y-529872D01*
X53240Y-526976D01*
Y-524024D01*
X52664Y-521128D01*
X51534Y-518400D01*
X49894Y-515944D01*
X47806Y-513857D01*
X45351Y-512216D01*
X42623Y-511086D01*
X39727Y-510510D01*
D02*
G37*
G36*
X39441Y-557460D02*
X37060D01*
X34761Y-558076D01*
X32700Y-559266D01*
X31016Y-560949D01*
X29826Y-563011D01*
X29210Y-565310D01*
Y-567690D01*
X29826Y-569989D01*
X31016Y-572051D01*
X32700Y-573734D01*
X34761Y-574924D01*
X37060Y-575540D01*
X39441D01*
X41740Y-574924D01*
X43801Y-573734D01*
X45484Y-572051D01*
X46674Y-569989D01*
X47290Y-567690D01*
Y-565310D01*
X46674Y-563011D01*
X45484Y-560949D01*
X43801Y-559266D01*
X41740Y-558076D01*
X39441Y-557460D01*
D02*
G37*
G36*
X47290Y-577460D02*
X29210D01*
Y-595512D01*
X28695Y-595857D01*
X26607Y-597944D01*
X24966Y-600400D01*
X23836Y-603128D01*
X23260Y-606024D01*
Y-608976D01*
X23836Y-611872D01*
X24966Y-614600D01*
X26607Y-617056D01*
X28695Y-619143D01*
X31150Y-620784D01*
X33878Y-621914D01*
X36774Y-622490D01*
X39727D01*
X42623Y-621914D01*
X45351Y-620784D01*
X47806Y-619143D01*
X49894Y-617056D01*
X51534Y-614600D01*
X52664Y-611872D01*
X53240Y-608976D01*
Y-606024D01*
X52664Y-603128D01*
X51534Y-600400D01*
X49894Y-597944D01*
X47806Y-595857D01*
X47290Y-595512D01*
Y-577460D01*
D02*
G37*
G36*
X80795Y-609110D02*
X78455D01*
X76194Y-609716D01*
X74166Y-610886D01*
X73098Y-611955D01*
X63696D01*
X61924Y-612188D01*
X60272Y-612873D01*
X58854Y-613961D01*
X36798Y-636017D01*
X35709Y-637435D01*
X35025Y-639087D01*
X34792Y-640860D01*
Y-645460D01*
X31210D01*
Y-659540D01*
X40555D01*
X41000Y-659599D01*
X41140D01*
X41586Y-659540D01*
X50290D01*
Y-645460D01*
X48489D01*
Y-643697D01*
X66533Y-625652D01*
X75099D01*
X76194Y-626284D01*
X78455Y-626890D01*
X80795D01*
X83056Y-626284D01*
X85084Y-625114D01*
X86739Y-623459D01*
X87909Y-621431D01*
X88515Y-619170D01*
Y-616830D01*
X87909Y-614569D01*
X86739Y-612541D01*
X85084Y-610886D01*
X83056Y-609716D01*
X80795Y-609110D01*
D02*
G37*
G36*
X50290Y-664460D02*
X31210D01*
Y-678540D01*
X45800D01*
X45933Y-678596D01*
X47706Y-678829D01*
X56440D01*
Y-680020D01*
X79020D01*
Y-664940D01*
X56440D01*
Y-665132D01*
X50290D01*
Y-664460D01*
D02*
G37*
G36*
X379290Y-673710D02*
X360210D01*
Y-699790D01*
X379290D01*
Y-673710D01*
D02*
G37*
G36*
X334290D02*
X315210D01*
Y-699790D01*
X334290D01*
Y-673710D01*
D02*
G37*
G36*
X79020Y-694940D02*
X69000D01*
Y-701210D01*
X79020D01*
Y-694940D01*
D02*
G37*
G36*
X66460D02*
X56440D01*
Y-701210D01*
X66460D01*
Y-694940D01*
D02*
G37*
G36*
X531290Y-675460D02*
X512210D01*
Y-701540D01*
X531290D01*
Y-675460D01*
D02*
G37*
G36*
X486290D02*
X467210D01*
Y-701540D01*
X486290D01*
Y-675460D01*
D02*
G37*
G36*
X79020Y-703750D02*
X69000D01*
Y-710020D01*
X79020D01*
Y-703750D01*
D02*
G37*
G36*
X66460D02*
X56440D01*
Y-710020D01*
X66460D01*
Y-703750D01*
D02*
G37*
G36*
X150540Y-702210D02*
X131460D01*
Y-728290D01*
X150540D01*
Y-702210D01*
D02*
G37*
G36*
X486290Y-766460D02*
X467210D01*
Y-772026D01*
X441599D01*
X440709Y-771136D01*
X438681Y-769966D01*
X436420Y-769360D01*
X434080D01*
X431819Y-769966D01*
X429791Y-771136D01*
X428136Y-772791D01*
X426966Y-774819D01*
X426360Y-777080D01*
Y-779420D01*
X426966Y-781681D01*
X428136Y-783709D01*
X429791Y-785364D01*
X431819Y-786534D01*
X434080Y-787140D01*
X436420D01*
X438681Y-786534D01*
X440085Y-785724D01*
X467210D01*
Y-792540D01*
X486290D01*
Y-766460D01*
D02*
G37*
G36*
X379290Y-764710D02*
X371020D01*
Y-776480D01*
X379290D01*
Y-764710D01*
D02*
G37*
G36*
X368480D02*
X360210D01*
Y-776480D01*
X368480D01*
Y-764710D01*
D02*
G37*
G36*
X531290Y-766460D02*
X523020D01*
Y-778230D01*
X531290D01*
Y-766460D01*
D02*
G37*
G36*
X520480D02*
X512210D01*
Y-778230D01*
X520480D01*
Y-766460D01*
D02*
G37*
G36*
X786540Y-775960D02*
X778270D01*
Y-787730D01*
X786540D01*
Y-775960D01*
D02*
G37*
G36*
X775730D02*
X767460D01*
Y-787730D01*
X775730D01*
Y-775960D01*
D02*
G37*
G36*
X268040Y-776210D02*
X259770D01*
Y-787980D01*
X268040D01*
Y-776210D01*
D02*
G37*
G36*
X257230D02*
X248960D01*
Y-787980D01*
X257230D01*
Y-776210D01*
D02*
G37*
G36*
X379290Y-779020D02*
X371020D01*
Y-790790D01*
X379290D01*
Y-779020D01*
D02*
G37*
G36*
X368480D02*
X360210D01*
Y-790790D01*
X368480D01*
Y-779020D01*
D02*
G37*
G36*
X531290Y-780770D02*
X523020D01*
Y-792540D01*
X531290D01*
Y-780770D01*
D02*
G37*
G36*
X520480D02*
X512210D01*
Y-792540D01*
X520480D01*
Y-780770D01*
D02*
G37*
G36*
X786540Y-790270D02*
X778270D01*
Y-802040D01*
X786540D01*
Y-790270D01*
D02*
G37*
G36*
X775730D02*
X767460D01*
Y-802040D01*
X775730D01*
Y-790270D01*
D02*
G37*
G36*
X733420Y-735610D02*
X731080D01*
X728819Y-736216D01*
X726791Y-737386D01*
X725136Y-739041D01*
X723966Y-741069D01*
X723360Y-743330D01*
Y-745670D01*
X723966Y-747931D01*
X725136Y-749959D01*
X725276Y-750099D01*
Y-775960D01*
X722460D01*
Y-802040D01*
X741540D01*
Y-775960D01*
X738974D01*
Y-750349D01*
X739364Y-749959D01*
X740534Y-747931D01*
X741140Y-745670D01*
Y-743330D01*
X740534Y-741069D01*
X739364Y-739041D01*
X737709Y-737386D01*
X735681Y-736216D01*
X733420Y-735610D01*
D02*
G37*
G36*
X268040Y-790520D02*
X259770D01*
Y-802290D01*
X268040D01*
Y-790520D01*
D02*
G37*
G36*
X257230D02*
X248960D01*
Y-802290D01*
X257230D01*
Y-790520D01*
D02*
G37*
G36*
X121790Y-776710D02*
X102710D01*
Y-802790D01*
X121790D01*
Y-776710D01*
D02*
G37*
G36*
X76790D02*
X57710D01*
Y-802790D01*
X76790D01*
Y-776710D01*
D02*
G37*
G36*
X195540Y-793210D02*
X187270D01*
Y-804980D01*
X195540D01*
Y-793210D01*
D02*
G37*
G36*
X184730D02*
X176460D01*
Y-804980D01*
X184730D01*
Y-793210D01*
D02*
G37*
G36*
X195540Y-807520D02*
X187270D01*
Y-819290D01*
X195540D01*
Y-807520D01*
D02*
G37*
G36*
X184730D02*
X176460D01*
Y-819290D01*
X184730D01*
Y-807520D01*
D02*
G37*
G36*
X223040Y-776210D02*
X203960D01*
Y-802290D01*
X213355D01*
X219277Y-808213D01*
X219216Y-808319D01*
X218610Y-810580D01*
Y-812920D01*
X219216Y-815181D01*
X220386Y-817209D01*
X222041Y-818864D01*
X224069Y-820034D01*
X226330Y-820640D01*
X228670D01*
X230931Y-820034D01*
X232959Y-818864D01*
X234614Y-817209D01*
X235784Y-815181D01*
X236390Y-812920D01*
Y-810580D01*
X235784Y-808319D01*
X234614Y-806291D01*
X233435Y-805113D01*
X233312Y-804174D01*
X232627Y-802522D01*
X231539Y-801104D01*
X223040Y-792605D01*
Y-776210D01*
D02*
G37*
G36*
X334290Y-764710D02*
X315210D01*
Y-790790D01*
X317901D01*
Y-804613D01*
X318135Y-806386D01*
X318819Y-808038D01*
X319907Y-809456D01*
X325860Y-815409D01*
Y-816920D01*
X326466Y-819181D01*
X327636Y-821209D01*
X329291Y-822864D01*
X331319Y-824034D01*
X333580Y-824640D01*
X335920D01*
X338181Y-824034D01*
X340209Y-822864D01*
X341864Y-821209D01*
X343034Y-819181D01*
X343640Y-816920D01*
Y-814580D01*
X343034Y-812319D01*
X341864Y-810291D01*
X340209Y-808636D01*
X338181Y-807466D01*
X336961Y-807139D01*
X331599Y-801777D01*
Y-790790D01*
X334290D01*
Y-764710D01*
D02*
G37*
G36*
X658040Y-851460D02*
X638960D01*
Y-877540D01*
X658040D01*
Y-851460D01*
D02*
G37*
G36*
X613040D02*
X593960D01*
Y-877540D01*
X613040D01*
Y-851460D01*
D02*
G37*
G36*
X121790Y-867710D02*
X113520D01*
Y-879480D01*
X121790D01*
Y-867710D01*
D02*
G37*
G36*
X110980D02*
X102710D01*
Y-879480D01*
X110980D01*
Y-867710D01*
D02*
G37*
G36*
X194790Y-854210D02*
X175710D01*
Y-880290D01*
X194790D01*
Y-854210D01*
D02*
G37*
G36*
X149790D02*
X130710D01*
Y-880290D01*
X149790D01*
Y-854210D01*
D02*
G37*
G36*
X786540Y-866960D02*
X767460D01*
Y-893040D01*
X786540D01*
Y-866960D01*
D02*
G37*
G36*
X741540D02*
X722460D01*
Y-893040D01*
X741540D01*
Y-866960D01*
D02*
G37*
G36*
X268040Y-867210D02*
X248960D01*
Y-893290D01*
X268040D01*
Y-867210D01*
D02*
G37*
G36*
X223040D02*
X203960D01*
Y-893290D01*
X223040D01*
Y-867210D01*
D02*
G37*
G36*
X121790Y-882020D02*
X113520D01*
Y-893790D01*
X121790D01*
Y-882020D01*
D02*
G37*
G36*
X110980D02*
X102710D01*
Y-893790D01*
X110980D01*
Y-882020D01*
D02*
G37*
G36*
X658040Y-942460D02*
X649770D01*
Y-954230D01*
X658040D01*
Y-942460D01*
D02*
G37*
G36*
X647230D02*
X638960D01*
Y-954230D01*
X647230D01*
Y-942460D01*
D02*
G37*
G36*
X194790Y-945210D02*
X186520D01*
Y-956980D01*
X194790D01*
Y-945210D01*
D02*
G37*
G36*
X183980D02*
X175710D01*
Y-956980D01*
X183980D01*
Y-945210D01*
D02*
G37*
G36*
X658040Y-956770D02*
X649770D01*
Y-968540D01*
X658040D01*
Y-956770D01*
D02*
G37*
G36*
X647230D02*
X638960D01*
Y-968540D01*
X647230D01*
Y-956770D01*
D02*
G37*
G36*
X615920Y-913360D02*
X613580D01*
X611319Y-913966D01*
X609291Y-915136D01*
X607636Y-916791D01*
X606466Y-918819D01*
X605860Y-921080D01*
Y-921455D01*
X598657Y-928657D01*
X597569Y-930076D01*
X596885Y-931728D01*
X596651Y-933500D01*
Y-942460D01*
X593960D01*
Y-968540D01*
X613040D01*
Y-942460D01*
X610349D01*
Y-936337D01*
X615545Y-931140D01*
X615920D01*
X618181Y-930534D01*
X620209Y-929364D01*
X621864Y-927709D01*
X623034Y-925681D01*
X623640Y-923420D01*
Y-921080D01*
X623034Y-918819D01*
X621864Y-916791D01*
X620209Y-915136D01*
X618181Y-913966D01*
X615920Y-913360D01*
D02*
G37*
G36*
X194790Y-959520D02*
X186520D01*
Y-971290D01*
X194790D01*
Y-959520D01*
D02*
G37*
G36*
X183980D02*
X175710D01*
Y-971290D01*
X183980D01*
Y-959520D01*
D02*
G37*
G36*
X162920Y-922110D02*
X160580D01*
X158319Y-922716D01*
X156291Y-923886D01*
X154636Y-925541D01*
X153466Y-927569D01*
X152860Y-929830D01*
Y-932170D01*
X152920Y-932395D01*
X140105Y-945210D01*
X130710D01*
Y-971290D01*
X149790D01*
Y-954895D01*
X165702Y-938984D01*
X167209Y-938114D01*
X168864Y-936459D01*
X170034Y-934431D01*
X170640Y-932170D01*
Y-929830D01*
X170034Y-927569D01*
X168864Y-925541D01*
X167209Y-923886D01*
X165181Y-922716D01*
X162920Y-922110D01*
D02*
G37*
G36*
X47220Y-929440D02*
X42780D01*
X38425Y-930306D01*
X34323Y-932005D01*
X30632Y-934472D01*
X27492Y-937612D01*
X25025Y-941303D01*
X23326Y-945405D01*
X22460Y-949760D01*
Y-954200D01*
X23326Y-958555D01*
X25025Y-962657D01*
X27492Y-966348D01*
X30632Y-969488D01*
X34323Y-971955D01*
X38425Y-973654D01*
X42780Y-974520D01*
X47220D01*
X51575Y-973654D01*
X55677Y-971955D01*
X59368Y-969488D01*
X62508Y-966348D01*
X64975Y-962657D01*
X66674Y-958555D01*
X67540Y-954200D01*
Y-949760D01*
X66674Y-945405D01*
X64975Y-941303D01*
X62508Y-937612D01*
X59368Y-934472D01*
X55677Y-932005D01*
X51575Y-930306D01*
X47220Y-929440D01*
D02*
G37*
G36*
X797220Y-929460D02*
X792780D01*
X788425Y-930326D01*
X784323Y-932025D01*
X780632Y-934492D01*
X777492Y-937632D01*
X775025Y-941323D01*
X773326Y-945425D01*
X772460Y-949780D01*
Y-954220D01*
X773326Y-958575D01*
X775025Y-962677D01*
X777492Y-966368D01*
X780632Y-969508D01*
X784323Y-971975D01*
X788425Y-973674D01*
X792780Y-974540D01*
X797220D01*
X801575Y-973674D01*
X805677Y-971975D01*
X809368Y-969508D01*
X812508Y-966368D01*
X814975Y-962677D01*
X816674Y-958575D01*
X817540Y-954220D01*
Y-949780D01*
X816674Y-945425D01*
X814975Y-941323D01*
X812508Y-937632D01*
X809368Y-934492D01*
X805677Y-932025D01*
X801575Y-930326D01*
X797220Y-929460D01*
D02*
G37*
%LPD*%
D14*
X777000Y-789000D02*
D03*
Y-880000D02*
D03*
X732000Y-789000D02*
D03*
Y-880000D02*
D03*
X648500Y-864500D02*
D03*
Y-955500D02*
D03*
X603500Y-864500D02*
D03*
Y-955500D02*
D03*
X185250Y-867250D02*
D03*
Y-958250D02*
D03*
X140250Y-867250D02*
D03*
Y-958250D02*
D03*
X112250Y-789750D02*
D03*
Y-880750D02*
D03*
X67250Y-789750D02*
D03*
Y-880750D02*
D03*
X258500Y-789250D02*
D03*
Y-880250D02*
D03*
X213500Y-789250D02*
D03*
Y-880250D02*
D03*
X369750Y-686750D02*
D03*
Y-777750D02*
D03*
X324750Y-686750D02*
D03*
Y-777750D02*
D03*
X521750Y-688500D02*
D03*
Y-779500D02*
D03*
X476750Y-688500D02*
D03*
Y-779500D02*
D03*
X186000Y-715250D02*
D03*
Y-806250D02*
D03*
X141000Y-715250D02*
D03*
Y-806250D02*
D03*
D15*
X67730Y-702480D02*
D03*
Y-672480D02*
D03*
D16*
X802000Y-172750D02*
D03*
X819000D02*
D03*
D17*
X40750Y-671500D02*
D03*
Y-652500D02*
D03*
D33*
X485959Y-323341D02*
Y-220596D01*
X482000Y-216637D02*
X485959Y-220596D01*
X482000Y-216637D02*
Y-215500D01*
X41000Y-652750D02*
X41140D01*
X41640Y-652250D01*
Y-640860D01*
X63696Y-618804D01*
X78821D01*
X47706Y-671980D02*
X70480D01*
X78821Y-618804D02*
X79625Y-618000D01*
X142000Y-327250D02*
X276750D01*
X134500Y-334750D02*
X142000Y-327250D01*
X276750D02*
X294750Y-309250D01*
Y-278750D01*
X244488Y-174988D02*
X244500Y-175000D01*
X244476Y-125246D02*
X244488Y-125258D01*
Y-174988D02*
Y-125258D01*
X320125Y-174875D02*
X320750Y-175500D01*
X320125Y-174875D02*
Y-125871D01*
X319500Y-125246D02*
X320125Y-125871D01*
X459850Y-349450D02*
X641550D01*
X68899D02*
X459850D01*
X651750Y-339250D02*
Y-171250D01*
X641550Y-349450D02*
X651750Y-339250D01*
X459850Y-349450D02*
X485959Y-323341D01*
X68899Y-247850D02*
X198100D01*
X68899Y-247850D02*
X68899Y-247850D01*
X198100D02*
X253750Y-303500D01*
X213500Y-792750D02*
X226696Y-805946D01*
Y-810946D02*
Y-805946D01*
X213500Y-792750D02*
Y-789250D01*
X226696Y-810946D02*
X227500Y-811750D01*
X435250Y-778250D02*
X435875Y-778875D01*
X476125D02*
X476750Y-779500D01*
X435875Y-778875D02*
X476125D01*
X324750Y-804613D02*
Y-777750D01*
Y-804613D02*
X334750Y-814613D01*
Y-815750D02*
Y-814613D01*
X243500Y-738750D02*
X523500D01*
X189250Y-684500D02*
X243500Y-738750D01*
X523500D02*
X549250Y-713000D01*
X171750Y-753500D02*
X535000D01*
X141000Y-784250D02*
X171750Y-753500D01*
X535000D02*
X578750Y-709750D01*
X549250Y-713000D02*
Y-667850D01*
X527950Y-646550D02*
X549250Y-667850D01*
X67250Y-877250D02*
X86000Y-858500D01*
X67250Y-880750D02*
Y-877250D01*
X86000Y-858500D02*
Y-715500D01*
X117000Y-684500D01*
X189250D01*
X578750Y-709750D02*
Y-646550D01*
X141000Y-806250D02*
Y-784250D01*
X160946Y-934054D02*
Y-931804D01*
X140250Y-958250D02*
Y-954750D01*
X160946Y-934054D01*
Y-931804D02*
X161750Y-931000D01*
X603500Y-933500D02*
X614750Y-922250D01*
X603500Y-955500D02*
Y-933500D01*
X732125Y-788875D02*
Y-744625D01*
X732000Y-789000D02*
X732125Y-788875D01*
Y-744625D02*
X732250Y-744500D01*
X68899Y-349450D02*
Y-324050D01*
X669500Y-153500D02*
X814010D01*
X651750Y-171250D02*
X669500Y-153500D01*
X818990Y-172740D02*
X819000Y-172750D01*
X814010Y-153500D02*
X818990Y-158479D01*
Y-172740D02*
Y-158479D01*
X681250Y-172750D02*
X802000D01*
X667500Y-186500D02*
X681250Y-172750D01*
X690999Y-273250D02*
X730750D01*
X749000Y-291500D01*
Y-508000D02*
Y-291500D01*
X689818Y-297469D02*
X690999Y-298650D01*
X667500Y-289377D02*
Y-186500D01*
Y-289377D02*
X675592Y-297469D01*
X689818D01*
X35500Y-143250D02*
X57900Y-120850D01*
X35500Y-448500D02*
Y-143250D01*
Y-448500D02*
X78750Y-491750D01*
X820000Y-172750D02*
X820000Y-557000D01*
X730000Y-527000D02*
X749000Y-508000D01*
X790000Y-587000D02*
X820000Y-557000D01*
X741100Y-247850D02*
X770000Y-276750D01*
X750000Y-557000D02*
X770000Y-537000D01*
Y-276750D01*
X68899Y-374850D02*
X498350Y-374850D01*
X554250Y-430750D01*
Y-462100D02*
Y-430750D01*
X553350Y-463000D02*
X554250Y-462100D01*
X78750Y-491750D02*
X182500D01*
X196913Y-477337D02*
Y-463837D01*
X197750Y-463000D01*
X182500Y-491750D02*
X196913Y-477337D01*
X690999Y-247850D02*
X741100D01*
X310000Y-557000D02*
X750000D01*
X273950Y-593050D02*
X310000Y-557000D01*
X240000Y-527000D02*
X730000D01*
X197750Y-569250D02*
X240000Y-527000D01*
X197750Y-640800D02*
Y-569250D01*
X273950Y-640800D02*
Y-593050D01*
X620000Y-587000D02*
X790000D01*
X604150Y-602850D02*
X620000Y-587000D01*
X604150Y-640800D02*
Y-602850D01*
D34*
X214470Y-124822D02*
D03*
X244476Y-125246D02*
D03*
X319500D02*
D03*
X354500D02*
D03*
X612959Y-287930D02*
D03*
X654950Y-646550D02*
D03*
D35*
X485959Y-287930D02*
D03*
X460559D02*
D03*
X511359D02*
D03*
X536759D02*
D03*
X562159D02*
D03*
X587559D02*
D03*
X519751Y-144968D02*
D03*
X554743D02*
D03*
D36*
X473687Y-139332D02*
D03*
X599577D02*
D03*
X795000Y-952000D02*
D03*
X45000Y-951980D02*
D03*
X794750Y-45000D02*
D03*
X44500Y-45000D02*
D03*
D37*
X68899Y-120850D02*
D03*
D38*
Y-146250D02*
D03*
Y-171650D02*
D03*
Y-197050D02*
D03*
Y-222450D02*
D03*
Y-247850D02*
D03*
Y-273250D02*
D03*
Y-298650D02*
D03*
Y-324050D02*
D03*
Y-349450D02*
D03*
Y-374850D02*
D03*
X690999Y-197050D02*
D03*
Y-222450D02*
D03*
Y-247850D02*
D03*
Y-273250D02*
D03*
Y-298650D02*
D03*
D39*
X223150Y-646550D02*
D03*
X248550D02*
D03*
X451750D02*
D03*
X477150D02*
D03*
X502550D02*
D03*
X527950D02*
D03*
X553350D02*
D03*
X578750D02*
D03*
X604150D02*
D03*
X629550D02*
D03*
X324750D02*
D03*
X350150D02*
D03*
X375550D02*
D03*
X400950D02*
D03*
X426350D02*
D03*
X172350D02*
D03*
X197750D02*
D03*
X273950D02*
D03*
X299350D02*
D03*
X604150Y-468750D02*
D03*
X527950D02*
D03*
X553350D02*
D03*
X578750D02*
D03*
X629550D02*
D03*
X502550D02*
D03*
X477150D02*
D03*
X451750D02*
D03*
X654950D02*
D03*
X426350D02*
D03*
X400950D02*
D03*
X197750D02*
D03*
X223150D02*
D03*
X248550D02*
D03*
X273950D02*
D03*
X299350D02*
D03*
X324750D02*
D03*
X350150D02*
D03*
X375550D02*
D03*
X172350D02*
D03*
D40*
X38250Y-586500D02*
D03*
D41*
Y-566500D02*
D03*
Y-546500D02*
D03*
D42*
Y-607500D02*
D03*
Y-525500D02*
D03*
D43*
X482000Y-215500D02*
D03*
X79625Y-618000D02*
D03*
X134500Y-334750D02*
D03*
X294750Y-278750D02*
D03*
X421260Y-348490D02*
D03*
X244500Y-175000D02*
D03*
X320750Y-175500D02*
D03*
X227500Y-811750D02*
D03*
X435250Y-778250D02*
D03*
X334750Y-815750D02*
D03*
X161750Y-931000D02*
D03*
X614750Y-922250D02*
D03*
X732250Y-744500D02*
D03*
D44*
X253750Y-303500D02*
D03*
M02*
