M48
;Layer_Color=9474304
;FILE_FORMAT=4:4
METRIC,LZ
;TYPE=PLATED
T1F00S00C0.7112
T2F00S00C0.8000
T3F00S00C1.0000
T4F00S00C1.3000
T5F00S00C1.6600
%
T01
X0016175Y-00931
X0061475Y-0092225
X0073225Y-007445
X0043525Y-0077825
X0033475Y-0081575
X002275Y-0081175
X00079625Y-00618
X001345Y-0033475
X0029475Y-0027875
X0032075Y-001755
X002445Y-00175
X00482Y-002155
X0042126Y-0034849
T02
X0003825Y-005865
Y-005665
Y-005465
T03
X0055335Y-0064655
X0057875
X0060415
X0062955
X0065495
X0052795
X0050255
X0047715
X0045175
X0042635
X0040095
X0037555
X0035015
X0032475
X0029935
X0027395
X0024855
X0022315
X0019775
X0017235
X00068899Y-0037485
Y-0034945
Y-0032405
Y-0029865
Y-0027325
Y-0024785
Y-0022245
Y-0019705
Y-0017165
Y-0014625
Y-0012085
X0025375Y-003035
X0024855Y-0046875
X0022315
X0019775
X0017235
X0027395
X0029935
X0032475
X0035015
X0037555
X0040095
X0042635
X0045175
X0047715
X0050255
X0052795
X0055335
X0057875
X0060415
X0062955
X0065495
X00690999Y-0029865
Y-0027325
Y-0024785
Y-0022245
Y-0019705
T04
X0021447Y-00124822
X00244476Y-00125246
X003195
X003545
X00519751Y-00144968
X00511359Y-0028793
X00485959
X00460559
X00536759
X00562159
X00587559
X00612959
X00554743Y-00144968
T05
X0003825Y-006075
Y-005255
M30
